<?xml version="1.0" standalone="no"?>
<!DOCTYPE svg PUBLIC "-//W3C//DTD SVG 20010904//EN"
 "http://www.w3.org/TR/2001/REC-SVG-20010904/DTD/svg10.dtd">
<svg version="1.0" xmlns="http://www.w3.org/2000/svg"
 width="500.000000pt" height="500.000000pt" viewBox="0 0 500.000000 500.000000"
 preserveAspectRatio="xMidYMid meet">

<g transform="translate(0.000000,500.000000) scale(0.100000,-0.100000)"
fill="#000000" stroke="none">
<path d="M1735 2956 c-80 -38 -135 -113 -135 -183 1 -37 32 -103 63 -131 13
-13 89 -52 168 -87 79 -36 158 -76 176 -89 45 -36 68 -101 53 -155 -14 -54
-68 -107 -128 -125 -26 -8 -40 -15 -31 -15 41 -2 116 35 160 79 69 69 85 140
49 215 -36 76 -74 105 -230 170 -63 27 -131 59 -151 71 -37 23 -69 76 -69 113
0 62 58 129 130 149 20 6 27 11 15 11 -11 0 -42 -10 -70 -23z"/>
<path d="M1898 2973 c7 -3 16 -2 19 1 4 3 -2 6 -13 5 -11 0 -14 -3 -6 -6z"/>
<path d="M4031 2929 c-12 -29 -18 -55 -13 -58 13 -9 282 -629 282 -650 0 -11
-8 -25 -17 -30 -17 -10 -17 -10 0 -11 23 0 64 41 73 74 3 14 2 38 -4 54 -15
43 -284 656 -292 665 -4 4 -17 -16 -29 -44z"/>
<path d="M697 2949 c-47 -36 -57 -67 -57 -186 0 -119 15 -162 65 -185 14 -6
25 -14 25 -18 0 -4 -11 -12 -25 -18 -51 -23 -65 -65 -65 -195 0 -112 -1 -119
-25 -142 -22 -23 -23 -25 -4 -25 10 0 36 15 57 34 l37 34 5 137 c5 129 6 138
29 156 l23 19 -23 19 c-23 18 -24 26 -27 168 -4 160 4 198 40 213 23 9 23 9
-2 9 -14 0 -38 -9 -53 -20z"/>
<path d="M934 2960 c92 -28 145 -167 107 -282 -13 -39 -81 -108 -107 -108 -8
0 -29 -13 -45 -29 -50 -51 -42 -73 72 -202 78 -88 100 -118 96 -136 -5 -26 -3
-27 23 -13 24 13 42 65 30 93 -5 12 -51 69 -104 127 -52 58 -95 110 -96 117 0
16 26 29 74 36 86 14 166 111 166 201 -1 109 -101 208 -207 205 -37 -1 -37 -1
-9 -9z"/>
<path d="M1428 2953 c-14 -9 -36 -33 -47 -54 -20 -35 -21 -51 -21 -358 0 -308
-1 -322 -20 -341 -19 -19 -19 -20 -2 -20 28 0 88 64 96 100 3 18 6 171 6 339
0 316 2 330 40 344 11 4 9 6 -5 6 -11 0 -32 -7 -47 -16z"/>
<path d="M1955 2951 c17 -10 43 -32 57 -49 21 -26 28 -29 38 -18 9 11 4 19
-22 39 -41 30 -73 47 -90 47 -7 0 1 -8 17 -19z"/>
<path d="M2337 2949 c-46 -35 -57 -68 -57 -171 0 -103 17 -148 65 -170 31 -14
31 -22 0 -36 -14 -6 -34 -26 -45 -44 -17 -29 -20 -51 -20 -170 0 -128 -1 -139
-22 -158 -19 -18 -20 -20 -4 -20 10 0 36 17 57 39 l39 39 0 130 c0 141 9 181
41 189 20 6 19 7 -8 28 -28 23 -28 23 -31 157 -4 144 4 183 40 198 23 9 23 9
-2 9 -14 0 -38 -9 -53 -20z"/>
<path d="M2793 2938 c-46 -47 -53 -76 -53 -203 0 -112 0 -114 -27 -134 -21
-15 -24 -20 -11 -21 31 0 38 -35 38 -204 0 -159 -1 -165 -22 -180 -20 -14 -20
-16 -4 -16 29 0 77 40 92 76 9 21 14 70 14 131 0 113 -16 155 -69 184 l-31 17
33 19 c53 32 67 74 67 205 0 118 3 128 35 146 19 11 19 11 -6 12 -16 0 -37
-12 -56 -32z"/>
<path d="M2957 2936 l-16 -35 35 24 c20 14 50 27 68 30 17 2 42 6 56 8 14 3
-9 5 -51 6 l-75 1 -17 -34z"/>
<path d="M3289 2943 c-57 -49 -59 -61 -59 -412 0 -319 0 -320 -22 -335 -20
-14 -20 -16 -4 -16 29 0 77 40 92 76 11 26 14 103 14 351 0 175 4 323 8 329 4
6 16 16 27 22 20 11 20 11 -2 12 -12 0 -36 -12 -54 -27z"/>
<path d="M3466 2960 c57 -8 124 -37 124 -53 0 -6 3 -8 6 -5 3 4 -2 20 -11 37
-15 31 -16 31 -93 30 -74 -1 -75 -2 -26 -9z"/>
<path d="M3986 2825 c-9 -26 -7 -32 5 -12 6 10 9 21 6 23 -2 3 -7 -2 -11 -11z"/>
<path d="M3936 2705 c-9 -26 -7 -32 5 -12 6 10 9 21 6 23 -2 3 -7 -2 -11 -11z"/>
<path d="M3866 2535 c-9 -26 -7 -32 5 -12 6 10 9 21 6 23 -2 3 -7 -2 -11 -11z"/>
<path d="M3826 2435 c-9 -26 -7 -32 5 -12 6 10 9 21 6 23 -2 3 -7 -2 -11 -11z"/>
<path d="M1626 2292 c-6 -16 -2 -29 10 -43 23 -25 132 -79 158 -78 12 1 4 5
-18 11 -37 10 -109 71 -132 113 -11 19 -11 19 -18 -3z"/>
<path d="M3737 2235 c-12 -17 -14 -26 -5 -31 7 -4 8 -3 4 4 -4 7 -3 12 2 12 9
0 26 30 20 35 -2 2 -11 -7 -21 -20z"/>
<path d="M3658 2183 c7 -3 16 -2 19 1 4 3 -2 6 -13 5 -11 0 -14 -3 -6 -6z"/>
<path d="M1662 1865 c13 -27 25 -40 29 -33 4 6 1 17 -6 25 -8 7 -17 22 -20 33
-3 11 -10 20 -16 20 -5 0 1 -20 13 -45z"/>
<path d="M1718 1899 c-5 -16 3 -79 11 -79 3 0 6 20 6 45 0 42 -9 59 -17 34z"/>
<path d="M1897 1896 c-4 -10 -3 -15 3 -11 6 3 10 -1 10 -10 0 -11 -5 -15 -14
-12 -8 3 -18 -5 -25 -19 -6 -15 -7 -24 -1 -24 6 0 10 7 10 16 0 10 7 14 23 12
12 -2 21 -9 20 -16 -2 -6 2 -12 7 -12 13 0 12 7 -9 54 -14 32 -19 36 -24 22z"/>
<path d="M2072 1903 c12 -3 18 -17 21 -46 l4 -42 1 42 c2 30 7 43 20 46 9 3
-1 5 -23 5 -22 0 -32 -2 -23 -5z"/>
<path d="M2255 1865 c0 -25 3 -45 8 -45 4 0 7 20 7 45 0 25 -3 45 -7 45 -5 0
-8 -20 -8 -45z"/>
<path d="M2280 1906 c0 -2 8 -10 18 -17 15 -13 16 -12 3 4 -13 16 -21 21 -21
13z"/>
<path d="M2488 1900 c30 -12 38 -38 22 -64 -12 -19 -12 -20 3 -7 32 25 9 82
-31 80 -12 0 -10 -3 6 -9z"/>
<path d="M2658 1865 c-2 -25 0 -45 4 -45 5 0 8 12 8 28 l1 27 15 -28 c24 -44
28 -24 4 22 -11 23 -22 41 -24 41 -2 0 -6 -20 -8 -45z"/>
<path d="M2731 1891 c-8 -14 -9 -21 -2 -17 7 5 11 -4 11 -23 0 -17 4 -31 8
-31 4 0 6 17 4 38 -5 56 -8 59 -21 33z"/>
<path d="M2928 1900 c30 -12 38 -38 22 -64 -12 -19 -12 -20 3 -7 32 25 9 82
-31 80 -12 0 -10 -3 6 -9z"/>
<path d="M3095 1865 c0 -25 3 -45 8 -45 4 0 7 15 7 33 l1 32 28 -34 29 -35 3
47 c2 26 1 47 -3 47 -5 0 -8 -15 -8 -32 l-1 -33 -28 33 c-15 17 -29 32 -32 32
-2 0 -4 -20 -4 -45z"/>
<path d="M3300 1905 c0 -3 7 -17 16 -30 9 -14 14 -32 10 -40 -3 -8 -1 -15 4
-15 14 0 12 31 -2 63 -11 24 -28 37 -28 22z"/>
<path d="M3346 1894 c-5 -14 -4 -15 9 -4 17 14 19 20 6 20 -5 0 -12 -7 -15
-16z"/>
<path d="M2447 1893 c-19 -18 1 -73 26 -73 5 0 1 7 -8 17 -10 9 -15 26 -12 40
5 25 4 27 -6 16z"/>
<path d="M2887 1893 c-19 -18 1 -73 26 -73 5 0 1 7 -8 17 -10 9 -15 26 -12 40
5 25 4 27 -6 16z"/>
<path d="M2287 1863 c-5 -8 20 -50 26 -42 2 2 -2 15 -9 27 -6 13 -14 20 -17
15z"/>
<path d="M1641 1834 c0 -11 3 -14 6 -6 3 7 2 16 -1 19 -3 4 -6 -2 -5 -13z"/>
</g>
</svg>
